<svg width="425" height="90" viewBox="0 0 425 90" fill="none" xmlns="http://www.w3.org/2000/svg">
<path d="M0.0320005 90V0.399994H36.896C44.832 0.399994 51.616 1.68 57.248 4.24C62.9653 6.8 67.36 10.4693 70.432 15.248C73.504 20.0267 75.04 25.7013 75.04 32.272C75.04 38.8427 73.504 44.5173 70.432 49.296C67.36 53.9893 62.9653 57.616 57.248 60.176C51.616 62.6507 44.832 63.888 36.896 63.888H9.248L16.672 56.336V90H0.0320005ZM58.656 90L36 57.488H53.792L76.576 90H58.656ZM16.672 58.128L9.248 50.192H36.128C43.4667 50.192 48.9707 48.6133 52.64 45.456C56.3947 42.2987 58.272 37.904 58.272 32.272C58.272 26.5547 56.3947 22.16 52.64 19.088C48.9707 16.016 43.4667 14.48 36.128 14.48H9.248L16.672 6.28799V58.128ZM93.657 90V0.399994H107.353L146.521 65.808H139.353L177.881 0.399994H191.577L191.705 90H175.961L175.833 25.104H179.161L146.393 79.76H138.969L105.689 25.104H109.529V90H93.657ZM215.907 90V0.399994H232.547V90H215.907ZM256.782 90V0.399994H270.478L326.67 69.392H319.886V0.399994H336.398V90H322.702L266.51 21.008H273.294V90H256.782ZM378.583 90V14.48H348.887V0.399994H424.919V14.48H395.223V90H378.583Z" fill="#FF6452"/>
</svg>
