<svg width="25" height="37" viewBox="0 0 25 37" fill="none" xmlns="http://www.w3.org/2000/svg">
<path d="M12.4091 36.4773C10.1591 36.4773 8.15341 36.0909 6.39205 35.3182C4.64205 34.5455 3.25 33.4716 2.21591 32.0966C1.19318 30.7102 0.636364 29.1023 0.545455 27.2727H4.84091C4.93182 28.3977 5.31818 29.3693 6 30.1875C6.68182 30.9943 7.57386 31.6193 8.67614 32.0625C9.77841 32.5057 11 32.7273 12.3409 32.7273C13.8409 32.7273 15.1705 32.4659 16.3295 31.9432C17.4886 31.4205 18.3977 30.6932 19.0568 29.7614C19.7159 28.8295 20.0455 27.75 20.0455 26.5227C20.0455 25.2386 19.7273 24.108 19.0909 23.1307C18.4545 22.142 17.5227 21.3693 16.2955 20.8125C15.0682 20.2557 13.5682 19.9773 11.7955 19.9773H9V16.2273H11.7955C13.1818 16.2273 14.3977 15.9773 15.4432 15.4773C16.5 14.9773 17.3239 14.2727 17.9148 13.3636C18.517 12.4545 18.8182 11.3864 18.8182 10.1591C18.8182 8.97727 18.5568 7.94886 18.0341 7.07386C17.5114 6.19886 16.7727 5.51704 15.8182 5.02841C14.875 4.53977 13.7614 4.29545 12.4773 4.29545C11.2727 4.29545 10.1364 4.51705 9.06818 4.96023C8.01136 5.39205 7.14773 6.02273 6.47727 6.85227C5.80682 7.67045 5.44318 8.65909 5.38636 9.81818H1.29545C1.36364 7.98864 1.91477 6.38636 2.94886 5.01136C3.98295 3.625 5.33523 2.54545 7.00568 1.77273C8.6875 0.999999 10.5341 0.613635 12.5455 0.613635C14.7045 0.613635 16.5568 1.05114 18.1023 1.92614C19.6477 2.78977 20.8352 3.93182 21.6648 5.35227C22.4943 6.77273 22.9091 8.30682 22.9091 9.95455C22.9091 11.9205 22.392 13.5966 21.358 14.983C20.3352 16.3693 18.9432 17.3295 17.1818 17.8636V18.1364C19.3864 18.5 21.108 19.4375 22.3466 20.9489C23.5852 22.4489 24.2045 24.3068 24.2045 26.5227C24.2045 28.4205 23.6875 30.125 22.6534 31.6364C21.6307 33.1364 20.233 34.3182 18.4602 35.1818C16.6875 36.0455 14.6705 36.4773 12.4091 36.4773Z" fill="#FEFEFE"/>
<path d="M12.4091 36.4773C10.1591 36.4773 8.15341 36.0909 6.39205 35.3182C4.64205 34.5455 3.25 33.4716 2.21591 32.0966C1.19318 30.7102 0.636364 29.1023 0.545455 27.2727H4.84091C4.93182 28.3977 5.31818 29.3693 6 30.1875C6.68182 30.9943 7.57386 31.6193 8.67614 32.0625C9.77841 32.5057 11 32.7273 12.3409 32.7273C13.8409 32.7273 15.1705 32.4659 16.3295 31.9432C17.4886 31.4205 18.3977 30.6932 19.0568 29.7614C19.7159 28.8295 20.0455 27.75 20.0455 26.5227C20.0455 25.2386 19.7273 24.108 19.0909 23.1307C18.4545 22.142 17.5227 21.3693 16.2955 20.8125C15.0682 20.2557 13.5682 19.9773 11.7955 19.9773H9V16.2273H11.7955C13.1818 16.2273 14.3977 15.9773 15.4432 15.4773C16.5 14.9773 17.3239 14.2727 17.9148 13.3636C18.517 12.4545 18.8182 11.3864 18.8182 10.1591C18.8182 8.97727 18.5568 7.94886 18.0341 7.07386C17.5114 6.19886 16.7727 5.51704 15.8182 5.02841C14.875 4.53977 13.7614 4.29545 12.4773 4.29545C11.2727 4.29545 10.1364 4.51705 9.06818 4.96023C8.01136 5.39205 7.14773 6.02273 6.47727 6.85227C5.80682 7.67045 5.44318 8.65909 5.38636 9.81818H1.29545C1.36364 7.98864 1.91477 6.38636 2.94886 5.01136C3.98295 3.625 5.33523 2.54545 7.00568 1.77273C8.6875 0.999999 10.5341 0.613635 12.5455 0.613635C14.7045 0.613635 16.5568 1.05114 18.1023 1.92614C19.6477 2.78977 20.8352 3.93182 21.6648 5.35227C22.4943 6.77273 22.9091 8.30682 22.9091 9.95455C22.9091 11.9205 22.392 13.5966 21.358 14.983C20.3352 16.3693 18.9432 17.3295 17.1818 17.8636V18.1364C19.3864 18.5 21.108 19.4375 22.3466 20.9489C23.5852 22.4489 24.2045 24.3068 24.2045 26.5227C24.2045 28.4205 23.6875 30.125 22.6534 31.6364C21.6307 33.1364 20.233 34.3182 18.4602 35.1818C16.6875 36.0455 14.6705 36.4773 12.4091 36.4773Z" fill="#FEFEFE"/>
<path d="M12.4091 36.4773C10.1591 36.4773 8.15341 36.0909 6.39205 35.3182C4.64205 34.5455 3.25 33.4716 2.21591 32.0966C1.19318 30.7102 0.636364 29.1023 0.545455 27.2727H4.84091C4.93182 28.3977 5.31818 29.3693 6 30.1875C6.68182 30.9943 7.57386 31.6193 8.67614 32.0625C9.77841 32.5057 11 32.7273 12.3409 32.7273C13.8409 32.7273 15.1705 32.4659 16.3295 31.9432C17.4886 31.4205 18.3977 30.6932 19.0568 29.7614C19.7159 28.8295 20.0455 27.75 20.0455 26.5227C20.0455 25.2386 19.7273 24.108 19.0909 23.1307C18.4545 22.142 17.5227 21.3693 16.2955 20.8125C15.0682 20.2557 13.5682 19.9773 11.7955 19.9773H9V16.2273H11.7955C13.1818 16.2273 14.3977 15.9773 15.4432 15.4773C16.5 14.9773 17.3239 14.2727 17.9148 13.3636C18.517 12.4545 18.8182 11.3864 18.8182 10.1591C18.8182 8.97727 18.5568 7.94886 18.0341 7.07386C17.5114 6.19886 16.7727 5.51704 15.8182 5.02841C14.875 4.53977 13.7614 4.29545 12.4773 4.29545C11.2727 4.29545 10.1364 4.51705 9.06818 4.96023C8.01136 5.39205 7.14773 6.02273 6.47727 6.85227C5.80682 7.67045 5.44318 8.65909 5.38636 9.81818H1.29545C1.36364 7.98864 1.91477 6.38636 2.94886 5.01136C3.98295 3.625 5.33523 2.54545 7.00568 1.77273C8.6875 0.999999 10.5341 0.613635 12.5455 0.613635C14.7045 0.613635 16.5568 1.05114 18.1023 1.92614C19.6477 2.78977 20.8352 3.93182 21.6648 5.35227C22.4943 6.77273 22.9091 8.30682 22.9091 9.95455C22.9091 11.9205 22.392 13.5966 21.358 14.983C20.3352 16.3693 18.9432 17.3295 17.1818 17.8636V18.1364C19.3864 18.5 21.108 19.4375 22.3466 20.9489C23.5852 22.4489 24.2045 24.3068 24.2045 26.5227C24.2045 28.4205 23.6875 30.125 22.6534 31.6364C21.6307 33.1364 20.233 34.3182 18.4602 35.1818C16.6875 36.0455 14.6705 36.4773 12.4091 36.4773Z" fill="#FEFEFE"/>
<path d="M12.4091 36.4773C10.1591 36.4773 8.15341 36.0909 6.39205 35.3182C4.64205 34.5455 3.25 33.4716 2.21591 32.0966C1.19318 30.7102 0.636364 29.1023 0.545455 27.2727H4.84091C4.93182 28.3977 5.31818 29.3693 6 30.1875C6.68182 30.9943 7.57386 31.6193 8.67614 32.0625C9.77841 32.5057 11 32.7273 12.3409 32.7273C13.8409 32.7273 15.1705 32.4659 16.3295 31.9432C17.4886 31.4205 18.3977 30.6932 19.0568 29.7614C19.7159 28.8295 20.0455 27.75 20.0455 26.5227C20.0455 25.2386 19.7273 24.108 19.0909 23.1307C18.4545 22.142 17.5227 21.3693 16.2955 20.8125C15.0682 20.2557 13.5682 19.9773 11.7955 19.9773H9V16.2273H11.7955C13.1818 16.2273 14.3977 15.9773 15.4432 15.4773C16.5 14.9773 17.3239 14.2727 17.9148 13.3636C18.517 12.4545 18.8182 11.3864 18.8182 10.1591C18.8182 8.97727 18.5568 7.94886 18.0341 7.07386C17.5114 6.19886 16.7727 5.51704 15.8182 5.02841C14.875 4.53977 13.7614 4.29545 12.4773 4.29545C11.2727 4.29545 10.1364 4.51705 9.06818 4.96023C8.01136 5.39205 7.14773 6.02273 6.47727 6.85227C5.80682 7.67045 5.44318 8.65909 5.38636 9.81818H1.29545C1.36364 7.98864 1.91477 6.38636 2.94886 5.01136C3.98295 3.625 5.33523 2.54545 7.00568 1.77273C8.6875 0.999999 10.5341 0.613635 12.5455 0.613635C14.7045 0.613635 16.5568 1.05114 18.1023 1.92614C19.6477 2.78977 20.8352 3.93182 21.6648 5.35227C22.4943 6.77273 22.9091 8.30682 22.9091 9.95455C22.9091 11.9205 22.392 13.5966 21.358 14.983C20.3352 16.3693 18.9432 17.3295 17.1818 17.8636V18.1364C19.3864 18.5 21.108 19.4375 22.3466 20.9489C23.5852 22.4489 24.2045 24.3068 24.2045 26.5227C24.2045 28.4205 23.6875 30.125 22.6534 31.6364C21.6307 33.1364 20.233 34.3182 18.4602 35.1818C16.6875 36.0455 14.6705 36.4773 12.4091 36.4773Z" fill="#FEFEFE"/>
<path d="M12.4091 36.4773C10.1591 36.4773 8.15341 36.0909 6.39205 35.3182C4.64205 34.5455 3.25 33.4716 2.21591 32.0966C1.19318 30.7102 0.636364 29.1023 0.545455 27.2727H4.84091C4.93182 28.3977 5.31818 29.3693 6 30.1875C6.68182 30.9943 7.57386 31.6193 8.67614 32.0625C9.77841 32.5057 11 32.7273 12.3409 32.7273C13.8409 32.7273 15.1705 32.4659 16.3295 31.9432C17.4886 31.4205 18.3977 30.6932 19.0568 29.7614C19.7159 28.8295 20.0455 27.75 20.0455 26.5227C20.0455 25.2386 19.7273 24.108 19.0909 23.1307C18.4545 22.142 17.5227 21.3693 16.2955 20.8125C15.0682 20.2557 13.5682 19.9773 11.7955 19.9773H9V16.2273H11.7955C13.1818 16.2273 14.3977 15.9773 15.4432 15.4773C16.5 14.9773 17.3239 14.2727 17.9148 13.3636C18.517 12.4545 18.8182 11.3864 18.8182 10.1591C18.8182 8.97727 18.5568 7.94886 18.0341 7.07386C17.5114 6.19886 16.7727 5.51704 15.8182 5.02841C14.875 4.53977 13.7614 4.29545 12.4773 4.29545C11.2727 4.29545 10.1364 4.51705 9.06818 4.96023C8.01136 5.39205 7.14773 6.02273 6.47727 6.85227C5.80682 7.67045 5.44318 8.65909 5.38636 9.81818H1.29545C1.36364 7.98864 1.91477 6.38636 2.94886 5.01136C3.98295 3.625 5.33523 2.54545 7.00568 1.77273C8.6875 0.999999 10.5341 0.613635 12.5455 0.613635C14.7045 0.613635 16.5568 1.05114 18.1023 1.92614C19.6477 2.78977 20.8352 3.93182 21.6648 5.35227C22.4943 6.77273 22.9091 8.30682 22.9091 9.95455C22.9091 11.9205 22.392 13.5966 21.358 14.983C20.3352 16.3693 18.9432 17.3295 17.1818 17.8636V18.1364C19.3864 18.5 21.108 19.4375 22.3466 20.9489C23.5852 22.4489 24.2045 24.3068 24.2045 26.5227C24.2045 28.4205 23.6875 30.125 22.6534 31.6364C21.6307 33.1364 20.233 34.3182 18.4602 35.1818C16.6875 36.0455 14.6705 36.4773 12.4091 36.4773Z" fill="#FEFEFE"/>
<path d="M12.4091 36.4773C10.1591 36.4773 8.15341 36.0909 6.39205 35.3182C4.64205 34.5455 3.25 33.4716 2.21591 32.0966C1.19318 30.7102 0.636364 29.1023 0.545455 27.2727H4.84091C4.93182 28.3977 5.31818 29.3693 6 30.1875C6.68182 30.9943 7.57386 31.6193 8.67614 32.0625C9.77841 32.5057 11 32.7273 12.3409 32.7273C13.8409 32.7273 15.1705 32.4659 16.3295 31.9432C17.4886 31.4205 18.3977 30.6932 19.0568 29.7614C19.7159 28.8295 20.0455 27.75 20.0455 26.5227C20.0455 25.2386 19.7273 24.108 19.0909 23.1307C18.4545 22.142 17.5227 21.3693 16.2955 20.8125C15.0682 20.2557 13.5682 19.9773 11.7955 19.9773H9V16.2273H11.7955C13.1818 16.2273 14.3977 15.9773 15.4432 15.4773C16.5 14.9773 17.3239 14.2727 17.9148 13.3636C18.517 12.4545 18.8182 11.3864 18.8182 10.1591C18.8182 8.97727 18.5568 7.94886 18.0341 7.07386C17.5114 6.19886 16.7727 5.51704 15.8182 5.02841C14.875 4.53977 13.7614 4.29545 12.4773 4.29545C11.2727 4.29545 10.1364 4.51705 9.06818 4.96023C8.01136 5.39205 7.14773 6.02273 6.47727 6.85227C5.80682 7.67045 5.44318 8.65909 5.38636 9.81818H1.29545C1.36364 7.98864 1.91477 6.38636 2.94886 5.01136C3.98295 3.625 5.33523 2.54545 7.00568 1.77273C8.6875 0.999999 10.5341 0.613635 12.5455 0.613635C14.7045 0.613635 16.5568 1.05114 18.1023 1.92614C19.6477 2.78977 20.8352 3.93182 21.6648 5.35227C22.4943 6.77273 22.9091 8.30682 22.9091 9.95455C22.9091 11.9205 22.392 13.5966 21.358 14.983C20.3352 16.3693 18.9432 17.3295 17.1818 17.8636V18.1364C19.3864 18.5 21.108 19.4375 22.3466 20.9489C23.5852 22.4489 24.2045 24.3068 24.2045 26.5227C24.2045 28.4205 23.6875 30.125 22.6534 31.6364C21.6307 33.1364 20.233 34.3182 18.4602 35.1818C16.6875 36.0455 14.6705 36.4773 12.4091 36.4773Z" fill="#FEFEFE"/>
</svg>
